<svg xmlns="http://www.w3.org/2000/svg" viewBox="0 0 1024 1024" role="img" aria-labelledby="title desc">
  <title id="title">简笔画图标</title>
  <desc id="desc">彩色圆角边框中的可爱铅笔和微笑图画本图标</desc>
  <defs>
    <linearGradient id="sky" x1="0" y1="0" x2="0" y2="1">
      <stop offset="0" stop-color="#6bd6ef"/>
      <stop offset="1" stop-color="#44c7db"/>
    </linearGradient>
    <linearGradient id="green" x1="0" y1="0" x2="1" y2="1">
      <stop offset="0" stop-color="#45d3b7"/>
      <stop offset="1" stop-color="#8edc7d"/>
    </linearGradient>
    <linearGradient id="yellow" x1="0" y1="0" x2="1" y2="1">
      <stop offset="0" stop-color="#f5f85e"/>
      <stop offset="1" stop-color="#ffaf2e"/>
    </linearGradient>
    <linearGradient id="pink" x1="0" y1="0" x2="1" y2="1">
      <stop offset="0" stop-color="#ff9eb8"/>
      <stop offset="1" stop-color="#f3568d"/>
    </linearGradient>
    <linearGradient id="paperBlue" x1="0" y1="0" x2="0" y2="1">
      <stop offset="0" stop-color="#ffffff"/>
      <stop offset="1" stop-color="#d8edf5"/>
    </linearGradient>
    <linearGradient id="paperPink" x1="0" y1="0" x2="0" y2="1">
      <stop offset="0" stop-color="#ffb5c6"/>
      <stop offset="1" stop-color="#f58ba9"/>
    </linearGradient>
    <filter id="softShadow" x="-20%" y="-20%" width="140%" height="140%">
      <feDropShadow dx="0" dy="10" stdDeviation="10" flood-color="#263238" flood-opacity=".12"/>
    </filter>
    <style>
      .ink{stroke:#050505;stroke-width:24;stroke-linecap:round;stroke-linejoin:round}
      .thin{stroke:#050505;stroke-width:18;stroke-linecap:round;stroke-linejoin:round}
      .soft-line{stroke:#bed4de;stroke-width:16;stroke-linecap:round}
    </style>
  </defs>

  <rect width="1024" height="1024" rx="188" fill="#fff"/>

  <path d="M0 0h290c-120 24-218 92-260 196C9 248 0 304 0 370z" fill="url(#sky)"/>
  <path d="M0 270h118v458H0z" fill="#45c7d7"/>
  <path d="M0 420l118-118 135 135-166 166L0 517z" fill="url(#green)"/>
  <path d="M0 728h245v296H0z" fill="#86dc84"/>
  <path d="M245 1024h440L525 865H112z" fill="url(#yellow)"/>
  <path d="M525 0h499v444L870 598 726 454 902 278 772 148z" fill="url(#pink)"/>
  <path d="M1024 444v580H688l157-156 101 101 78-78z" fill="#ffd348"/>
  <path d="M875 790l149-149v250l-76 78z" fill="#ffb22d" opacity=".75"/>

  <rect x="72" y="72" width="880" height="880" rx="128" fill="#fff" stroke="#e7eef0" stroke-width="2"/>

  <g filter="url(#softShadow)">
    <path d="M235 373l44-72 44 72v292c0 41-28 66-59 66s-58-25-58-66V431z" fill="#ffd070" class="ink"/>
    <path d="M235 373l44-72 44 72-29 18h-30z" fill="#ffe2ad"/>
    <path d="M249 343l30-42 30 42z" fill="#050505"/>
    <path d="M206 431c35 22 82 22 117 0" fill="none" class="ink"/>
    <path d="M206 665c33 20 84 20 117 0" fill="none" class="ink"/>
    <path d="M206 665v39c0 38 28 64 58 64s59-26 59-64v-39" fill="#f56fa5" class="ink"/>
    <path d="M252 434v224" stroke="#ff9f19" stroke-width="18" stroke-linecap="round"/>
    <path d="M294 434v224" stroke="#ffe0a2" stroke-width="18" stroke-linecap="round"/>
  </g>

  <g filter="url(#softShadow)">
    <path d="M368 335h300c54 0 94 40 94 94v205c0 54-40 94-94 94H379c-35 0-57 20-64 48v-347c0-54 40-94 94-94h127" fill="url(#paperBlue)" class="ink"/>
    <path d="M662 365c60 5 93 43 93 100v176c0 50-39 88-90 88H391c-44 0-73 20-76 47h397c54 0 96-42 96-96V461c0-54-42-93-96-96z" fill="url(#paperPink)" class="ink"/>
    <path d="M368 335h170" fill="none" class="ink"/>
    <path d="M575 335h93c54 0 94 40 94 94v78" fill="none" class="ink"/>
    <path d="M762 551v2" fill="none" class="ink"/>
    <path d="M762 604v40" fill="none" class="ink"/>

    <circle cx="452" cy="428" r="24" fill="#050505"/>
    <circle cx="626" cy="428" r="24" fill="#050505"/>
    <circle cx="466" cy="416" r="8" fill="#fff"/>
    <circle cx="640" cy="416" r="8" fill="#fff"/>
    <path d="M505 457c5 38 69 38 76 0" fill="none" class="ink"/>

    <path d="M423 521h246" class="soft-line"/>
    <path d="M423 565h246" class="soft-line"/>
    <path d="M423 609h94" class="soft-line"/>
  </g>

  <path d="M199 387l19 32 37 6-27 25 7 37-36-18-33 18 6-37-27-25 37-6z" fill="#ff6fa5" stroke="#cf4779" stroke-width="5" stroke-linejoin="round"/>
  <path d="M818 277l25 54 59 9-43 41 10 58-51-28-52 28 10-58-43-41 59-9z" fill="#72d9e6" stroke="#49b8c9" stroke-width="6" stroke-linejoin="round"/>
  <path d="M842 455l28 48 55 8-40 39 9 55-52-27-49 27 9-55-40-39 55-8z" fill="#ff6fa5" stroke="#cf4779" stroke-width="6" stroke-linejoin="round"/>
</svg>
